<?xml version="1.0" encoding="utf-8"?>
<!-- Generator: Adobe Illustrator 24.0.3, SVG Export Plug-In . SVG Version: 6.00 Build 0)  -->
<svg version="1.1" id="Layer_1" xmlns="http://www.w3.org/2000/svg" xmlns:xlink="http://www.w3.org/1999/xlink" x="0px" y="0px"
	 viewBox="0 0 841.89 135.2" style="enable-background:new 0 0 841.89 135.2;" xml:space="preserve">
<style type="text/css">
	.st0{fill:#154989;}
	.st1{fill:#0876BD;}
	.st2{fill:#0D64AE;}
	.st3{fill:#277DC1;}
</style>
<g id="Group_15146" transform="translate(-421.499 -2586.021)">
	<g id="Path_15212">
		<path class="st0" d="M580.61,2715.46H426.69v-124.43h153.92V2715.46z M431.69,2710.46h143.92v-114.43H431.69V2710.46z"/>
	</g>
	<g id="Group_15144" transform="translate(629.735 2588.987)">
		<g id="Path_15213">
			<path class="st1" d="M42.52,124.57c-16.81,0-32.31-6.96-42.51-19.1l-0.59-0.7V2.04h190.62v105.68l-4.36-4.83
				c-12.2-13.54-30.11-21.3-49.13-21.3c-20.25,0-38.88,8.54-51.09,23.42C75.26,117.44,59.61,124.57,42.52,124.57z M4.42,102.93
				c9.26,10.58,23.09,16.63,38.1,16.63c15.59,0,29.83-6.46,39.07-17.73c13.17-16.05,33.2-25.25,54.96-25.25
				c18.28,0,35.62,6.7,48.49,18.55V7.04H4.42V102.93z"/>
		</g>
	</g>
	<g id="Path_15214">
		<path class="st2" d="M868.56,2715.41v-96.59l27.84-27.84h126.08v96.59l-27.84,27.84L868.56,2715.41z M873.56,2620.88v89.52
			l119.01,0l24.91-24.91v-89.52H898.47L873.56,2620.88z"/>
	</g>
	<g id="Group_15145" transform="translate(1078.754 2588.521)">
		<g id="Path_15215">
			<path class="st3" d="M121.78,119.23c-0.04,0-0.07,0-0.11,0v0l-71.59-0.01c-31.99-0.69-57.81-26.7-57.81-58.58
				c0-32.3,26.52-58.58,59.11-58.58c0.18,0,0.35,0.01,0.52,0.02l0.68-0.02l69.1,0c0.03,0,0.07,0,0.1,0
				c32.59,0,59.11,26.28,59.11,58.58C180.89,92.94,154.37,119.23,121.78,119.23z M116.68,113.97l2.62,0.13
				c0.31,0.02,0.63,0.04,0.94,0.06c0.51,0.04,1.02,0.07,1.54,0.07c29.83,0,54.11-24.04,54.11-53.59c0-29.54-24.27-53.58-54.11-53.58
				c-0.52,0-1.02,0.04-1.53,0.07c-0.32,0.02-0.64,0.04-0.96,0.06l-0.12-2.42v2.29h-64.1v0.07l-2.57-0.01
				c-0.22-0.01-0.43-0.02-0.64-0.04c-0.16-0.01-0.32-0.03-0.49-0.03c-29.84,0-54.11,24.04-54.11,53.58
				c0,29.55,24.27,53.59,54.11,53.59c0.15,0,0.3-0.01,0.45-0.02c0.23-0.02,0.47-0.03,0.71-0.04l2.54-0.04v0.11h61.59V113.97z"/>
		</g>
	</g>
</g>
</svg>
